<svg width="42" height="43" viewBox="0 0 42 43"  xmlns="http://www.w3.org/2000/svg">
<path d="M20.9946 34.9258C20.0185 34.9258 19.0654 34.825 18.1439 34.635C16.4047 34.2721 14.7835 33.5868 13.3495 32.6395C11.76 31.5971 10.4009 30.235 9.35271 28.6455C8.40246 27.2 7.71138 25.5645 7.34856 23.8079C7.16427 22.898 7.06636 21.9593 7.06636 20.9946C7.06636 20.03 7.16715 19.0654 7.35719 18.1439C7.72002 16.4047 8.40822 14.7835 9.35271 13.3495C10.398 11.76 11.76 10.398 13.3495 9.35271C14.795 8.39958 16.4277 7.71138 18.1813 7.34856C19.0913 7.16427 20.0329 7.06636 20.9946 7.06636C21.9564 7.06636 22.9239 7.16715 23.8454 7.35719C25.5875 7.72002 27.2087 8.40822 28.6455 9.35271C30.235 10.4009 31.5971 11.76 32.6395 13.3495C33.5926 14.795 34.2837 16.4277 34.6436 18.1813C34.8279 19.0913 34.9258 20.0329 34.9258 20.9946C34.9258 21.798 34.8596 22.5813 34.7271 23.3443C36.2504 23.6755 37.6498 24.3349 38.8477 25.2477L41.828 23.6179C41.9375 22.7598 41.9922 21.8815 41.9922 20.9946C41.9922 20.1077 41.9375 19.2324 41.828 18.3743L37.1603 15.8201C36.8781 14.9275 36.5182 14.0665 36.0949 13.2458L37.598 8.14043C36.5239 6.75537 35.2771 5.50566 33.8949 4.42871L28.7866 5.91743C27.9545 5.4855 27.0791 5.1198 26.1692 4.83185L23.6179 0.164133C22.7569 0.054711 21.8815 0 20.9946 0C20.1077 0 19.2324 0.054711 18.3743 0.164133L15.8201 4.83185C14.9275 5.11404 14.0665 5.47398 13.2458 5.89727L8.14043 4.39416C6.75537 5.46822 5.50566 6.71218 4.42871 8.09435L5.91743 13.2055C5.4855 14.0377 5.1198 14.9131 4.83185 15.8201L0.164133 18.3743C0.054711 19.2324 0 20.1077 0 20.9946C0 21.8815 0.054711 22.7598 0.164133 23.6179L4.83185 26.1692C5.11404 27.0647 5.47398 27.9257 5.89439 28.7463L4.39128 33.8489C5.46534 35.2339 6.71218 36.4836 8.09435 37.5634L13.2026 36.0747C14.0348 36.5067 14.9102 36.8724 15.8201 37.1603L18.3743 41.828C19.2324 41.9375 20.1077 41.9922 20.9946 41.9922C21.8815 41.9922 22.7569 41.9375 23.6179 41.828L24.4184 40.3624C23.1457 38.842 22.2962 36.9587 22.0457 34.8884C21.7001 34.9114 21.3488 34.9258 20.9946 34.9258Z" />
<path d="M25.121 16.3239C25.121 14.0462 23.2752 12.2004 20.9946 12.2004C18.714 12.2004 16.8711 14.0462 16.8711 16.3239C16.8711 18.6016 18.7169 20.4474 20.9946 20.4474C23.2723 20.4474 25.121 18.6016 25.121 16.3239Z" />
<path d="M12.6411 27.6089V27.8479C12.6411 27.9199 12.6411 27.9919 12.6469 28.061C13.0385 28.9623 13.9369 29.5929 14.9822 29.5929H22.7655C23.7906 27.1136 25.7401 25.1124 28.1819 24.0182C27.0819 22.5237 25.311 21.5562 23.3126 21.5562H18.6939C15.3536 21.5562 12.6411 24.2658 12.6411 27.6089Z" />
<path d="M37.7506 25.8466C36.7802 25.1872 35.6802 24.7034 34.4967 24.4442C33.8488 24.3031 33.1722 24.2283 32.4811 24.2283C31.4646 24.2283 30.4856 24.3895 29.5699 24.689C29.2963 24.7783 29.0314 24.879 28.7722 24.9913C26.6759 25.8926 24.9741 27.5368 24.0009 29.5928C23.4192 30.8109 23.0967 32.1729 23.0967 33.6127C23.0967 33.7077 23.0996 33.8056 23.1024 33.9006C23.1111 34.1886 23.1312 34.4736 23.1658 34.7558C23.3702 36.4461 24.0239 37.9953 25.0058 39.2853C26.7162 41.5429 29.4288 42.9999 32.4811 42.9999C37.6642 42.9999 41.8654 38.7958 41.8654 33.6127C41.8654 30.3818 40.2356 27.534 37.7506 25.8466ZM32.4811 41.6984C29.639 41.6984 27.1424 40.2327 25.7027 38.0155C25.0288 36.9817 24.5854 35.7838 24.4472 34.4967C24.4213 34.2692 24.4069 34.0359 24.404 33.7998C24.3982 33.7394 24.3982 33.676 24.3982 33.6127C24.3982 32.1499 24.787 30.7763 25.4694 29.5928C26.3189 28.1099 27.6291 26.9206 29.2042 26.2238C29.3222 26.1691 29.446 26.1172 29.5699 26.0712C30.4712 25.7199 31.4531 25.5298 32.4811 25.5298C33.0397 25.5298 33.5868 25.5874 34.1138 25.694C35.1331 25.9042 36.0834 26.3044 36.9242 26.8602C39.1155 28.3057 40.5639 30.7907 40.5639 33.6127C40.5639 38.0788 36.9443 41.6984 32.4811 41.6984Z" />
<path d="M38.2142 32.8928L37.0912 32.2795L36.93 32.1902C36.8522 31.9426 36.7543 31.7065 36.6362 31.4819L36.7485 31.1018L37.0509 30.0738C36.7975 29.7484 36.5067 29.4489 36.1899 29.184C36.1381 29.1408 36.0863 29.0976 36.0315 29.0544L34.6263 29.4633C34.396 29.3452 34.1541 29.2445 33.9036 29.1638L33.2038 27.8796C33.1722 27.8767 33.1434 27.8709 33.1117 27.868C32.9044 27.8479 32.6942 27.8335 32.4811 27.8335C32.2363 27.8335 31.9944 27.8508 31.7583 27.8796L31.0557 29.1638C30.811 29.2416 30.572 29.3424 30.3474 29.4575L29.2272 29.1264L28.9421 29.0429C28.562 29.3395 28.2165 29.6822 27.9199 30.0623L28.2799 31.3033L28.3288 31.4703C28.2107 31.6978 28.11 31.9397 28.0322 32.1902L26.7451 32.8928C26.7163 33.1289 26.7019 33.3708 26.7019 33.6127C26.7019 33.6444 26.7019 33.6732 26.7019 33.7049C26.7019 33.9179 26.7163 34.1281 26.7422 34.3355L28.0293 35.0381C28.1071 35.2857 28.205 35.5218 28.3202 35.7464L28.1301 36.3972L27.9084 37.1517C28.2021 37.5346 28.5448 37.8773 28.9277 38.1739L30.333 37.765C30.5604 37.883 30.8023 37.9838 31.0528 38.0645L31.7554 39.3487C31.9916 39.3775 32.2334 39.3948 32.4782 39.3948C32.723 39.3948 32.962 39.3775 33.201 39.3487L33.9007 38.0645C34.1483 37.9867 34.3845 37.8859 34.6119 37.7707L36.0171 38.1854C36.3972 37.8888 36.7399 37.5461 37.0394 37.166L36.6276 35.758C36.7485 35.5305 36.8493 35.2886 36.9271 35.0381L38.2113 34.3355C38.243 34.0993 38.2574 33.8575 38.2574 33.6127C38.2574 33.3679 38.243 33.1289 38.2113 32.8928H38.2142ZM32.4811 36.4606C30.9089 36.4606 29.6361 35.1849 29.6361 33.6127C29.6361 32.0405 30.9089 30.7677 32.4811 30.7677C34.0533 30.7677 35.3261 32.0434 35.3261 33.6127C35.3261 35.1821 34.0533 36.4606 32.4811 36.4606Z" />
<path d="M32.4811 31.5393C31.335 31.5393 30.4078 32.4694 30.4078 33.6126C30.4078 34.7557 31.335 35.6887 32.4811 35.6887C33.6272 35.6887 34.5544 34.7586 34.5544 33.6126C34.5544 32.4665 33.6272 31.5393 32.4811 31.5393Z" />
</svg>
