<svg width="43" height="43" viewBox="0 0 43 43"  xmlns="http://www.w3.org/2000/svg">
<path d="M11.0137 16.0695C10.8346 17.6662 10.7218 19.3227 10.6864 21.0212L1.50388 23.6972C1.07704 23.8211 0.694433 24.0069 0.356059 24.2435C0.229998 23.3058 0.163651 22.3482 0.163651 21.3773C0.163651 19.5461 0.393656 17.768 0.82934 16.0695H11.0115H11.0137Z" />
<path d="M15.9964 0.727661C13.8954 3.68677 12.2434 8.18515 11.3676 13.5062H1.6609C4.12904 7.27619 9.44129 2.48145 15.9964 0.727661Z" />
<path d="M41.4231 13.5084H31.7695C31.0618 8.2713 29.58 3.83484 27.6161 0.875732C33.928 2.74453 39.0213 7.44416 41.4231 13.5084Z" />
<path d="M2.89054 28.0563L2.86842 28.0342H2.87063C2.87063 28.0342 2.88169 28.0497 2.89054 28.0563Z" />
<path d="M12.5419 35.799L12.0134 34.8525L12.2102 34.6556C12.3141 35.0449 12.4247 35.4253 12.5419 35.799Z" />
<path d="M28.8458 29.4452C27.5188 37.2079 24.5442 42.6971 21.1583 42.7435C20.4572 42.7523 19.7761 42.529 19.1325 42.0955C19.2143 41.9186 19.2851 41.7328 19.3426 41.536L22.8679 29.4474H28.8458V29.4452Z" />
<path d="M19.8269 18.354L13.358 20.2405C13.4089 18.8096 13.5128 17.4119 13.6654 16.0695H29.4031C29.538 17.7304 29.5977 19.4687 29.5734 21.2601C29.5469 23.2041 29.4208 25.0905 29.2129 26.8841H23.6154L24.6858 23.2129C25.5527 20.2427 22.7971 17.4871 19.8269 18.354Z" />
<path d="M31.5019 29.4452H41.3391C38.8113 35.6465 33.4526 40.3926 26.8687 42.0822C28.9608 39.1585 30.6129 34.7132 31.5019 29.4452Z" />
<path d="M42.916 21.3751C42.916 23.2792 42.666 25.1259 42.1994 26.8841H31.8646C32.0747 25.0839 32.1964 23.2085 32.2229 21.28C32.245 19.4908 32.1853 17.7458 32.0438 16.0695H42.2503C42.6859 17.7657 42.916 19.5439 42.916 21.3773V21.3751Z" />
<path d="M21.928 0.00440886C21.8594 0.00440886 21.7886 0.00219727 21.7201 0.00219727C21.7267 0.00219727 21.7355 0.00219727 21.7422 0.00219727C21.8041 0.00219727 21.866 0.00219727 21.928 0.00662045V0.00440886Z" />
<path d="M21.709 0H21.7112C21.7112 0 21.7156 0 21.7178 0C21.7178 0 21.7178 0 21.7201 0C21.7267 0 21.7355 0 21.7422 0C21.8041 0 21.866 0 21.9279 0.00442319H21.9302C25.2918 0.159235 28.0762 5.7037 29.1267 13.5084H14.0215C15.3241 5.65947 18.3076 0.0862521 21.709 0ZM21.1605 42.7412C20.4594 42.7501 19.7783 42.5267 19.1347 42.0932C19.2165 41.9163 19.2873 41.7305 19.3448 41.5337L22.8701 29.4451H28.848C27.5211 37.2078 24.5465 42.697 21.1605 42.7435V42.7412ZM29.5756 21.2578C29.5491 23.2018 29.423 25.0883 29.2151 26.8819H23.6176L24.688 23.2107C25.555 20.2405 22.7993 17.4849 19.8291 18.3518L13.3602 20.2383C13.4111 18.8074 13.515 17.4097 13.6676 16.0672H29.4053C29.5402 17.7281 29.6 19.4664 29.5756 21.2578Z" />
<path d="M22.8679 29.4452H28.8458C27.5188 37.2079 24.5442 42.6971 21.1583 42.7435C20.4572 42.7523 19.7761 42.529 19.1325 42.0955C19.2143 41.9186 19.2851 41.7328 19.3426 41.536L22.8679 29.4474V29.4452Z" />
<path d="M29.5756 21.2601C29.5491 23.2041 29.423 25.0905 29.2151 26.8841H23.6176L24.688 23.2129C25.555 20.2427 22.7993 17.4871 19.8291 18.354L13.3602 20.2405C13.4111 18.8096 13.515 17.4119 13.6676 16.0695H29.4053C29.5402 17.7304 29.6 19.4687 29.5756 21.2601Z" />
<path d="M12.5419 35.799L12.0134 34.8525L12.2102 34.6556C12.3141 35.0449 12.4247 35.4253 12.5419 35.799Z" />
<path d="M29.1289 13.5084H14.0215C15.3241 5.65947 18.3076 0.0862521 21.709 0H21.7112C21.7112 0 21.7156 0 21.7178 0C21.7178 0 21.7178 0 21.72 0C21.7908 0 21.8594 0 21.9279 0.00221159H21.9301C25.2918 0.157023 28.0762 5.70149 29.1267 13.5062L29.1289 13.5084Z" />
<path d="M21.928 0.00440886C21.8594 0.00440886 21.7886 0.00219727 21.7201 0.00219727C21.7267 0.00219727 21.7355 0.00219727 21.7422 0.00219727C21.8041 0.00219727 21.866 0.00219727 21.928 0.00662045V0.00440886Z" />
<path d="M22.8679 29.4452H28.8458C27.5188 37.2079 24.5442 42.6971 21.1583 42.7435C20.4572 42.7523 19.7761 42.529 19.1325 42.0955C19.2143 41.9186 19.2851 41.7328 19.3426 41.536L22.8679 29.4474V29.4452Z" />
<path d="M29.5756 21.2601C29.5491 23.2041 29.423 25.0905 29.2151 26.8841H23.6176L24.688 23.2129C25.555 20.2427 22.7993 17.4871 19.8291 18.354L13.3602 20.2405C13.4111 18.8096 13.515 17.4119 13.6676 16.0695H29.4053C29.5402 17.7304 29.6 19.4687 29.5756 21.2601Z" />
<path d="M2.89054 28.0563L2.86842 28.0342H2.87063C2.87063 28.0342 2.88169 28.0497 2.89054 28.0563Z" />
<path d="M2.87064 28.0364H2.86843C2.55438 27.7069 2.44602 27.28 2.51236 26.8841C2.59198 26.402 2.92814 25.9663 3.46335 25.8093L10.693 23.6972L13.3271 22.9276L20.5501 20.8177C21.5719 20.5192 22.5206 21.4657 22.2221 22.4897L20.9394 26.8841L20.1918 29.4452L17.2327 39.5765C17.1996 39.6871 17.1575 39.7888 17.1022 39.8817C16.6754 40.6159 15.6293 40.7928 14.9857 40.1493L14.9658 40.1316L12.5464 35.7991C12.4314 35.4253 12.3208 35.0427 12.2146 34.6535L12.0178 34.8503L10.8523 36.0158L8.53232 38.3358L8.23818 38.6321L4.67088 42.1972C4.13567 42.7324 3.43681 42.9978 2.73573 42.9978C2.03466 42.9978 1.3358 42.7324 0.802802 42.1972C-0.263186 41.1312 -0.263186 39.3995 0.802802 38.3313L4.3701 34.764L4.65761 34.4787L6.98642 32.1499L8.15193 30.9844L2.87285 28.0342L2.87064 28.0364Z" />
<path d="M2.89054 28.0563L2.86842 28.0342H2.87063C2.87063 28.0342 2.88169 28.0497 2.89054 28.0563Z" />
<path d="M12.5419 35.799L12.0134 34.8525L12.2102 34.6556C12.3141 35.0449 12.4247 35.4253 12.5419 35.799Z" />
<path d="M2.89054 28.0563L2.86842 28.0342H2.87063C2.87063 28.0342 2.88169 28.0497 2.89054 28.0563Z" />
</svg>
